<mxfile host="app.diagrams.net" modified="2022-09-14T08:25:01.032Z" agent="5.0 (Windows NT 10.0; Win64; x64) AppleWebKit/537.36 (KHTML, like Gecko) Chrome/104.0.0.0 Safari/537.36" etag="utj-OmaOU7Omgu3jVpIM" version="20.3.0" type="github">
  <diagram id="Tg5pM88NMdGY_b3UIndQ" name="第 1 页">
    <mxGraphModel dx="2187" dy="746" grid="1" gridSize="10" guides="1" tooltips="1" connect="1" arrows="1" fold="1" page="1" pageScale="1" pageWidth="827" pageHeight="1169" math="0" shadow="0">
      <root>
        <mxCell id="0" />
        <mxCell id="1" parent="0" />
        <mxCell id="oTmZ-C7Nvv7YUmRwg-Ib-2" value="Insight_WEB" style="whiteSpace=wrap;html=1;aspect=fixed;" vertex="1" parent="1">
          <mxGeometry x="-10" y="100" width="170" height="170" as="geometry" />
        </mxCell>
        <mxCell id="oTmZ-C7Nvv7YUmRwg-Ib-6" value="百源数据权限" style="shape=cylinder3;whiteSpace=wrap;html=1;boundedLbl=1;backgroundOutline=1;size=15;" vertex="1" parent="1">
          <mxGeometry x="690" y="160" width="120" height="110" as="geometry" />
        </mxCell>
        <mxCell id="oTmZ-C7Nvv7YUmRwg-Ib-7" value="Insight_SERVER" style="whiteSpace=wrap;html=1;aspect=fixed;" vertex="1" parent="1">
          <mxGeometry x="320" y="100" width="170" height="170" as="geometry" />
        </mxCell>
      </root>
    </mxGraphModel>
  </diagram>
</mxfile>
